<?xml version="1.0" encoding="UTF-8"?>
<svg width="192" height="192" viewBox="0 0 192 192" fill="none" xmlns="http://www.w3.org/2000/svg">
    <rect width="192" height="192" rx="48" fill="#3B82F6"/>
    <path d="M152 88H40m112 0a16 16 0 0116 16v48a16 16 0 01-16 16H40a16 16 0 01-16-16v-48a16 16 0 0116-16m112 0V72a16 16 0 00-16-16M40 88V72a16 16 0 0116-16m0 0V40a16 16 0 0116-16h48a16 16 0 0116 16v16m-80 0h80" 
          stroke="white" 
          stroke-width="12" 
          stroke-linecap="round" 
          stroke-linejoin="round"/>
</svg> 